<svg id="Calque_1" data-name="Calque 1" xmlns="http://www.w3.org/2000/svg" xmlns:xlink="http://www.w3.org/1999/xlink" viewBox="0 0 585 490"><defs><style>.cls-1{fill:url(#linear-gradient);}.cls-2{fill:url(#linear-gradient-2);}.cls-3{font-size:11.29px;}.cls-12,.cls-22,.cls-3{fill:#fff;}.cls-12,.cls-14,.cls-22,.cls-24,.cls-3,.cls-7{font-family:Poppins-Light, Poppins;font-weight:300;}.cls-30,.cls-4,.cls-9{fill:none;}.cls-30,.cls-4{stroke-miterlimit:10;}.cls-4{stroke:url(#linear-gradient-3);}.cls-5{fill:#414146;}.cls-6{font-size:9.01px;}.cls-13,.cls-14,.cls-24,.cls-25,.cls-6,.cls-7{fill:#d8d8d8;}.cls-13,.cls-15,.cls-16,.cls-18,.cls-25,.cls-26,.cls-6,.cls-8{font-family:Poppins-Bold, Poppins;font-weight:700;}.cls-7,.cls-8{font-size:8.47px;}.cls-16,.cls-18,.cls-26,.cls-8{fill:#ec2b5b;}.cls-10{fill:url(#linear-gradient-4);}.cls-11{fill:url(#linear-gradient-5);}.cls-12,.cls-13,.cls-15{font-size:11.33px;}.cls-14,.cls-18{font-size:8.5px;}.cls-15{fill:#cc5a1c;}.cls-17{fill:#ebebeb;}.cls-19{fill:url(#linear-gradient-6);}.cls-20{fill:url(#linear-gradient-7);}.cls-21{fill:url(#linear-gradient-8);}.cls-22,.cls-25{font-size:10.14px;}.cls-23{fill:url(#linear-gradient-9);}.cls-24,.cls-26{font-size:7.61px;}.cls-27{fill:#ca4f24;}.cls-28{fill:#4d8b3f;}.cls-29{fill:#69a742;}.cls-30{stroke:url(#linear-gradient-10);}</style><linearGradient id="linear-gradient" x1="760.05" y1="274.98" x2="-799.67" y2="274.98" gradientUnits="userSpaceOnUse"><stop offset="0" stop-color="#ca4f24"/><stop offset="1" stop-color="#a02053"/></linearGradient><linearGradient id="linear-gradient-2" x1="580.1" y1="245.29" x2="-174.42" y2="245.29" xlink:href="#linear-gradient"/><linearGradient id="linear-gradient-3" x1="508.12" y1="274.98" x2="134.5" y2="274.98" xlink:href="#linear-gradient"/><linearGradient id="linear-gradient-4" x1="402.66" y1="275.18" x2="-90.25" y2="275.18" xlink:href="#linear-gradient"/><linearGradient id="linear-gradient-5" x1="528.18" y1="245.4" x2="-228.68" y2="245.4" xlink:href="#linear-gradient"/><linearGradient id="linear-gradient-6" x1="1043.05" y1="67.05" x2="10.13" y2="67.05" xlink:href="#linear-gradient"/><linearGradient id="linear-gradient-7" x1="861.71" y1="67.05" x2="100.44" y2="67.05" xlink:href="#linear-gradient"/><linearGradient id="linear-gradient-8" x1="699.4" y1="40.39" x2="21.88" y2="40.39" xlink:href="#linear-gradient"/><linearGradient id="linear-gradient-9" x1="809.63" y1="40.39" x2="132.11" y2="40.39" xlink:href="#linear-gradient"/><linearGradient id="linear-gradient-10" x1="483.5" y1="67.05" x2="132.93" y2="67.05" xlink:href="#linear-gradient"/></defs><title>fresque2Plan de travail 1fresque</title><rect class="cls-1" x="302.36" y="266.98" width="163.16" height="16" rx="5.67"/><path class="cls-2" d="M410.15,230.4H360.68a3.26,3.26,0,0,0-3.26,3.26v13.12a3.26,3.26,0,0,0,3.26,3.26H376a3.25,3.25,0,0,1,2.86,1.7l3.69,6.74a3.26,3.26,0,0,0,5.73,0l3.68-6.74a3.26,3.26,0,0,1,2.87-1.7h15.32a3.26,3.26,0,0,0,3.26-3.26V233.66A3.26,3.26,0,0,0,410.15,230.4Z"/><text class="cls-3" transform="translate(373.02 244.04)">2020</text><path class="cls-4" d="M494.85,267l-7.92-5.13V267H135v16H486.93v5.11l7.91-5.11,12.36-8Z"/><rect class="cls-5" x="321.92" y="307.45" width="138.57" height="138.57"/><text class="cls-6" transform="translate(367.26 321.14)">Alternance<tspan x="-10.64" y="10.81">Développeur Jr.</tspan><tspan x="9.73" y="21.62">BAC +2</tspan></text><text class="cls-7" transform="translate(368.6 382.97)">HTML / CSS<tspan x="0.69" y="10.16">JavaScript</tspan><tspan x="15.18" y="20.33">SQL</tspan><tspan x="-0.69" y="30.49">Vue / Node</tspan><tspan x="6.2" y="40.65">API REST</tspan><tspan x="0.69" y="50.82">WordPress</tspan></text><text class="cls-8" transform="translate(355.43 355.59)">StaffMe Academy - <tspan x="5.3" y="10.16">OpenClassrooms</tspan></text><rect id="_Tranche_" data-name="&lt;Tranche&gt;" class="cls-9" x="100.11" y="445.31" width="232.89" height="232.24"/><rect class="cls-10" x="159.35" y="267.16" width="87.63" height="16.05" rx="5.67"/><path class="cls-11" d="M228.72,230.46H179.1a3.26,3.26,0,0,0-3.27,3.27v13.16a3.26,3.26,0,0,0,3.27,3.27h15.37a3.27,3.27,0,0,1,2.87,1.71l3.7,6.76a3.27,3.27,0,0,0,5.74,0l3.7-6.76a3.28,3.28,0,0,1,2.87-1.71h15.37a3.27,3.27,0,0,0,3.28-3.27V233.73A3.27,3.27,0,0,0,228.72,230.46Z"/><text class="cls-12" transform="translate(191.19 244.14)">2019</text><rect class="cls-5" x="137.24" y="307.75" width="139.01" height="139.01"/><text class="cls-13" transform="translate(162.51 324.07)">DIPLÔMÉ BAC +4</text><text class="cls-14" transform="translate(152.17 370.47)">Responsable marketing &amp; <tspan x="20.22" y="10.2">communication</tspan><tspan class="cls-15"><tspan x="-8.03" y="37.38">AUTO-ENTREPRENEUR</tspan></tspan><tspan class="cls-16"><tspan x="14.91" y="47.58">SARL socialmpact</tspan></tspan><tspan class="cls-17"><tspan x="20.12" y="57.77">Consultant Web</tspan></tspan></text><text class="cls-18" transform="translate(169.4 342.38)">Sciences U - Lille<tspan x="-1.88" y="10.2">OpenClassrooms</tspan></text><rect class="cls-19" x="146.53" y="59.87" width="190.56" height="14.37" rx="5.13"/><rect class="cls-20" x="358.21" y="59.87" width="110.91" height="14.37" rx="5.13"/><path class="cls-21" d="M211.41,27H167A2.93,2.93,0,0,0,164.06,30V41.73A2.93,2.93,0,0,0,167,44.66h13.76a2.92,2.92,0,0,1,2.57,1.52l3.31,6.06a2.93,2.93,0,0,0,5.14,0l3.31-6.06a2.94,2.94,0,0,1,2.58-1.52h13.75a2.93,2.93,0,0,0,2.93-2.93V30A2.93,2.93,0,0,0,211.41,27Z"/><text class="cls-22" transform="translate(178.64 40.39)">2016</text><path class="cls-23" d="M433.14,27H388.72A2.93,2.93,0,0,0,385.79,30V41.73a2.93,2.93,0,0,0,2.93,2.93h13.76a2.92,2.92,0,0,1,2.57,1.52l3.31,6.06a2.93,2.93,0,0,0,5.14,0l3.31-6.06a2.92,2.92,0,0,1,2.57-1.52h13.76a2.93,2.93,0,0,0,2.93-2.93V30A2.93,2.93,0,0,0,433.14,27Z"/><text class="cls-22" transform="translate(400.01 39.27)">2018</text><rect class="cls-5" x="131" y="96.21" width="200.91" height="124.43"/><rect class="cls-5" x="348.03" y="96.21" width="124.43" height="124.43"/><text class="cls-24" transform="translate(228.43 146.38)">CMS<tspan x="-31.2" y="9.13">(WordPress - Drupal)</tspan><tspan x="-16.67" y="18.25">HTML5 / CSS3</tspan><tspan x="-32.55" y="27.38">Notions de JavaScript</tspan></text><text class="cls-25" transform="translate(207.1 111.21)">Formation</text><text class="cls-25" transform="translate(355.67 111.21)">Google Digital Active</text><text class="cls-26" transform="translate(396.18 127.2)">Google</text><text class="cls-24" transform="translate(369.13 149.92)">Certification <tspan class="cls-27" x="48.03" y="0">Analytics</tspan><tspan x="-4.8" y="9.13">Certification </tspan><tspan class="cls-28" x="43.24" y="9.13">Google Ads</tspan><tspan x="-2.96" y="18.25">Certification </tspan><tspan class="cls-29" x="45.07" y="18.25">Réseau de </tspan><tspan class="cls-29"><tspan x="20.73" y="27.38">Recherche</tspan></tspan></text><path class="cls-30" d="M482.82,59.87H140.61a7.18,7.18,0,0,0,0,14.36H482.83C483,69.45,483.09,64.66,482.82,59.87Z"/><text class="cls-26" transform="translate(202.79 127.2)">OpenClassrooms</text><path class="cls-9" d="M-319,227V496H134V227ZM44,298c17-10,38-6,57-10C82,292,61,288,44,298Z"/><path class="cls-9" d="M55.81,267.14a105.21,105.21,0,0,0-.06-25.39q-1.12,7.59-2.32,15.18c-1.65,10.48-3.34,21-4.67,31.5-.06.5-.11,1-.17,1.49h3.3A171,171,0,0,0,55.81,267.14Z"/><path class="cls-9" d="M47.9,296q-.6,5.53-1.06,11.08,1.75-4.92,3.17-9.95c.22-.76.42-1.52.62-2.28C49.71,295.18,48.81,295.57,47.9,296Z"/><path class="cls-9" d="M51.89,289.93h-3.3c-.25,2-.47,4-.69,6.06.91-.41,1.81-.8,2.73-1.15C51.07,293.21,51.5,291.57,51.89,289.93Z"/><path class="cls-9" d="M44.69,297.62c0,.54.05,1.09.07,1.64.12,3.45.22,6.92.38,10.38.13.33.25.67.37,1l.06-.16c.19-2.72.4-5.45.66-8.17.17-1.94.38-3.88.59-5.82C46.1,296.84,45.39,297.22,44.69,297.62Z"/><path class="cls-9" d="M47.59,289.91l-3.28,0c.16,2.57.28,5.15.38,7.73.7-.4,1.41-.78,2.13-1.13C47.06,294.3,47.32,292.1,47.59,289.91Z"/><path class="cls-9" d="M52.91,289.94c-.35,1.5-.74,3-1.13,4.48,8.49-3,17.67-3.6,26.92-4.11a3,3,0,0,1,0-.31Q65.79,290,52.91,289.94Z"/><path class="cls-9" d="M78.7,290.31l5.38-.31H78.72A3,3,0,0,0,78.7,290.31Z"/></svg>