<svg id="Calque_1" data-name="Calque 1" xmlns="http://www.w3.org/2000/svg" xmlns:xlink="http://www.w3.org/1999/xlink" viewBox="0 0 320 634"><defs><style>.cls-1{fill:url(#linear-gradient);}.cls-2{fill:url(#linear-gradient-2);}.cls-3,.cls-6{font-size:8.58px;}.cls-12,.cls-27,.cls-3{fill:#fff;}.cls-12,.cls-16,.cls-27,.cls-3,.cls-30,.cls-5{font-family:Poppins-Light, Poppins;font-weight:300;}.cls-4{fill:#414146;}.cls-5,.cls-8{font-size:6.44px;}.cls-14,.cls-16,.cls-29,.cls-30,.cls-5,.cls-6{fill:#d8d8d8;}.cls-14,.cls-15,.cls-17,.cls-18,.cls-29,.cls-31,.cls-6,.cls-8{font-family:Poppins-Bold, Poppins;font-weight:700;}.cls-23,.cls-24,.cls-28,.cls-7{fill:none;}.cls-23,.cls-28,.cls-7{stroke-miterlimit:10;}.cls-7{stroke:url(#linear-gradient-3);}.cls-15,.cls-18,.cls-31,.cls-8{fill:#ec2b5b;}.cls-9{fill:url(#linear-gradient-4);}.cls-10{fill:url(#linear-gradient-5);}.cls-11{fill:url(#linear-gradient-6);}.cls-12,.cls-14,.cls-17{font-size:8.84px;}.cls-13{fill:url(#linear-gradient-7);}.cls-15,.cls-16{font-size:6.63px;}.cls-17{fill:#cc5a1c;}.cls-19{fill:#ebebeb;}.cls-20{fill:#ca4f24;}.cls-21{fill:#4d8b3f;}.cls-22{fill:#69a742;}.cls-23{stroke:url(#linear-gradient-8);}.cls-25{fill:url(#linear-gradient-9);}.cls-26{fill:url(#linear-gradient-10);}.cls-27{font-size:8.44px;}.cls-28{stroke:url(#linear-gradient-11);}.cls-29{font-size:6.73px;}.cls-30,.cls-31{font-size:6.33px;}</style><linearGradient id="linear-gradient" x1="845.18" y1="100.07" x2="-28.8" y2="100.07" gradientUnits="userSpaceOnUse"><stop offset="0" stop-color="#ca4f24"/><stop offset="1" stop-color="#a02053"/></linearGradient><linearGradient id="linear-gradient-2" x1="554.41" y1="77.51" x2="-18.86" y2="77.51" xlink:href="#linear-gradient"/><linearGradient id="linear-gradient-3" x1="252.5" y1="100.08" x2="75.03" y2="100.08" xlink:href="#linear-gradient"/><linearGradient id="linear-gradient-4" x1="493.36" y1="291.97" x2="-169.97" y2="291.97" xlink:href="#linear-gradient"/><linearGradient id="linear-gradient-5" x1="369.02" y1="291.97" x2="-15.45" y2="291.97" xlink:href="#linear-gradient"/><linearGradient id="linear-gradient-6" x1="447.98" y1="268.74" x2="-142.38" y2="268.74" xlink:href="#linear-gradient"/><linearGradient id="linear-gradient-7" x1="466.93" y1="268.74" x2="-123.43" y2="268.74" xlink:href="#linear-gradient"/><linearGradient id="linear-gradient-8" x1="278.24" y1="291.97" x2="41.38" y2="291.97" xlink:href="#linear-gradient"/><linearGradient id="linear-gradient-9" x1="445.52" y1="479.33" x2="-720.37" y2="479.33" xlink:href="#linear-gradient"/><linearGradient id="linear-gradient-10" x1="311.01" y1="457.13" x2="-252.99" y2="457.13" xlink:href="#linear-gradient"/><linearGradient id="linear-gradient-11" x1="257.44" y1="479.32" x2="92.17" y2="479.32" xlink:href="#linear-gradient"/></defs><title>fresque3Plan de travail 1fresque</title><rect class="cls-1" x="86.61" y="94" width="161.24" height="12.16" rx="5.13"/><path class="cls-2" d="M141.51,66.2H103.92a2.48,2.48,0,0,0-2.48,2.48v10a2.48,2.48,0,0,0,2.48,2.48h11.64a2.48,2.48,0,0,1,2.18,1.29l2.8,5.12a2.48,2.48,0,0,0,4.35,0l2.8-5.12a2.47,2.47,0,0,1,2.18-1.29h11.64A2.48,2.48,0,0,0,144,78.65v-10A2.48,2.48,0,0,0,141.51,66.2Z"/><text class="cls-3" transform="translate(113.78 77.52)">2016</text><rect class="cls-4" x="73.47" y="124.74" width="170" height="105.29"/><text class="cls-5" transform="translate(155.9 167.19)">CMS<tspan x="-26.4" y="7.72">(WordPress - Drupal)</tspan><tspan x="-14.1" y="15.44">HTML5 / CSS3</tspan><tspan x="-27.54" y="23.17">Notions de JavaScript</tspan></text><text class="cls-6" transform="translate(137.86 137.43)">Formation</text><path class="cls-7" d="M81.6,94a6.08,6.08,0,0,0,0,12.15H252V94Z"/><text class="cls-8" transform="translate(134.21 150.97)">OpenClassrooms</text><rect class="cls-9" x="54.64" y="285.71" width="96.64" height="12.52" rx="5.67"/><rect class="cls-10" x="179.24" y="285.71" width="68.36" height="12.52" rx="5.67"/><path class="cls-11" d="M119.93,257.09H81.22a2.55,2.55,0,0,0-2.55,2.55V269.9a2.55,2.55,0,0,0,2.55,2.56h12a2.56,2.56,0,0,1,2.24,1.33l2.88,5.27a2.56,2.56,0,0,0,4.49,0l2.88-5.27a2.56,2.56,0,0,1,2.24-1.33h12a2.55,2.55,0,0,0,2.55-2.56V259.64A2.55,2.55,0,0,0,119.93,257.09Z"/><text class="cls-12" transform="translate(91.06 267.76)">2018</text><path class="cls-13" d="M233.34,257.09h-38.7a2.55,2.55,0,0,0-2.55,2.55V269.9a2.55,2.55,0,0,0,2.55,2.56h12a2.56,2.56,0,0,1,2.24,1.33l2.88,5.27a2.55,2.55,0,0,0,4.48,0l2.89-5.27a2.54,2.54,0,0,1,2.24-1.33h12a2.56,2.56,0,0,0,2.56-2.56V259.64A2.56,2.56,0,0,0,233.34,257.09Z"/><text class="cls-12" transform="translate(204.07 267.76)">2019</text><rect class="cls-4" x="45.76" y="317.38" width="108.43" height="108.43"/><rect class="cls-4" x="161.99" y="317.38" width="108.43" height="108.43"/><text class="cls-14" transform="translate(52.42 330.45)">Google Digital Active</text><text class="cls-14" transform="translate(181.7 330.1)">DIPLÔMÉ BAC +4</text><text class="cls-15" transform="translate(87.73 344.38)">Google</text><text class="cls-16" transform="translate(173.63 366.3)">Responsable marketing &amp; <tspan x="15.77" y="7.95">communication</tspan><tspan class="cls-17"><tspan x="-6.26" y="29.16">AUTO-ENTREPRENEUR</tspan></tspan><tspan class="cls-18"><tspan x="11.63" y="37.11">SARL socialmpact</tspan></tspan><tspan class="cls-19"><tspan x="15.7" y="45.06">Consultant Web</tspan></tspan></text><text class="cls-16" transform="translate(64.15 364.18)">Certification <tspan class="cls-20" x="41.86" y="0">Analytics</tspan><tspan x="-4.18" y="7.95">Certification </tspan><tspan class="cls-21" x="37.68" y="7.95">Google Ads</tspan><tspan x="-2.58" y="15.9">Certification </tspan><tspan class="cls-22" x="39.28" y="15.9">Réseau de </tspan><tspan class="cls-22"><tspan x="18.06" y="23.86">Recherche</tspan></tspan></text><text class="cls-15" transform="translate(187.07 344.38)">Sciences U - Lille<tspan x="-1.47" y="7.95">OpenClassrooms</tspan></text><path class="cls-23" d="M277.59,285.72H42.12c.45,4.26,0,8.34-.22,12.51H277.66C277.75,294.06,277.81,289.89,277.59,285.72Z"/><rect id="_Tranche_" data-name="&lt;Tranche&gt;" class="cls-24" x="158.17" y="244" width="114.77" height="185.74"/><rect class="cls-25" x="103.4" y="473.35" width="121.96" height="11.96" rx="5.67"/><path class="cls-26" d="M184,446H147a2.44,2.44,0,0,0-2.44,2.44v9.8a2.44,2.44,0,0,0,2.44,2.44h11.45a2.45,2.45,0,0,1,2.14,1.27l2.75,5a2.44,2.44,0,0,0,4.29,0l2.75-5a2.45,2.45,0,0,1,2.14-1.27H184a2.44,2.44,0,0,0,2.44-2.44v-9.8A2.44,2.44,0,0,0,184,446Z"/><text class="cls-27" transform="translate(156.22 456.2)">2020</text><path class="cls-28" d="M247.29,473.35l-5.92-3.83v3.83H92.67v12h148.7v3.82l5.91-3.82,9.24-6Z"/><rect class="cls-4" x="118.02" y="503.6" width="103.58" height="103.58"/><text class="cls-29" transform="translate(151.91 513.83)">Alternance<tspan x="-7.95" y="8.08">Développeur Jr.</tspan><tspan x="7.27" y="16.16">BAC +2</tspan></text><text class="cls-30" transform="translate(152.92 560.05)">HTML / CSS<tspan x="0.52" y="7.6">JavaScript</tspan><tspan x="11.35" y="15.2">SQL</tspan><tspan x="-0.51" y="22.79">Vue / Node</tspan><tspan x="4.64" y="30.39">API REST</tspan><tspan x="0.52" y="37.99">WordPress</tspan></text><text class="cls-31" transform="translate(143.07 539.58)">StaffMe Academy - <tspan x="3.96" y="7.6">OpenClassrooms</tspan></text><rect id="_Tranche_2" data-name="&lt;Tranche&gt;" class="cls-24" x="-133.22" y="622.78" width="232.89" height="232.24"/></svg>