<svg id="Calque_1" data-name="Calque 1" xmlns="http://www.w3.org/2000/svg" xmlns:xlink="http://www.w3.org/1999/xlink" viewBox="0 0 397 490"><defs><style>.cls-1{fill:url(#linear-gradient);}.cls-2{fill:url(#linear-gradient-2);}.cls-3{font-size:11.29px;}.cls-12,.cls-22,.cls-3{fill:#fff;}.cls-12,.cls-14,.cls-22,.cls-24,.cls-3,.cls-7{font-family:Poppins-Light, Poppins;font-weight:300;}.cls-30,.cls-4,.cls-9{fill:none;}.cls-30,.cls-4{stroke-miterlimit:10;}.cls-4{stroke:url(#linear-gradient-3);}.cls-5{fill:#414146;}.cls-6{font-size:9.01px;}.cls-13,.cls-14,.cls-24,.cls-25,.cls-6,.cls-7{fill:#d8d8d8;}.cls-13,.cls-15,.cls-16,.cls-18,.cls-25,.cls-26,.cls-6,.cls-8{font-family:Poppins-Bold, Poppins;font-weight:700;}.cls-7,.cls-8{font-size:8.47px;}.cls-16,.cls-18,.cls-26,.cls-8{fill:#ec2b5b;}.cls-10{fill:url(#linear-gradient-4);}.cls-11{fill:url(#linear-gradient-5);}.cls-12,.cls-13,.cls-15{font-size:11.33px;}.cls-14,.cls-18{font-size:8.5px;}.cls-15{fill:#cc5a1c;}.cls-17{fill:#ebebeb;}.cls-19{fill:url(#linear-gradient-6);}.cls-20{fill:url(#linear-gradient-7);}.cls-21{fill:url(#linear-gradient-8);}.cls-22,.cls-25{font-size:10.14px;}.cls-23{fill:url(#linear-gradient-9);}.cls-24,.cls-26{font-size:7.61px;}.cls-27{fill:#ca4f24;}.cls-28{fill:#4d8b3f;}.cls-29{fill:#69a742;}.cls-30{stroke:url(#linear-gradient-10);}</style><linearGradient id="linear-gradient" x1="642.05" y1="274.98" x2="-917.67" y2="274.98" gradientUnits="userSpaceOnUse"><stop offset="0" stop-color="#ca4f24"/><stop offset="1" stop-color="#a02053"/></linearGradient><linearGradient id="linear-gradient-2" x1="462.1" y1="245.29" x2="-292.42" y2="245.29" xlink:href="#linear-gradient"/><linearGradient id="linear-gradient-3" x1="390.12" y1="274.98" x2="16.5" y2="274.98" xlink:href="#linear-gradient"/><linearGradient id="linear-gradient-4" x1="284.66" y1="275.18" x2="-208.25" y2="275.18" xlink:href="#linear-gradient"/><linearGradient id="linear-gradient-5" x1="410.18" y1="245.4" x2="-346.68" y2="245.4" xlink:href="#linear-gradient"/><linearGradient id="linear-gradient-6" x1="925.05" y1="67.05" x2="-107.87" y2="67.05" xlink:href="#linear-gradient"/><linearGradient id="linear-gradient-7" x1="743.71" y1="67.05" x2="-17.56" y2="67.05" xlink:href="#linear-gradient"/><linearGradient id="linear-gradient-8" x1="581.4" y1="40.39" x2="-96.12" y2="40.39" xlink:href="#linear-gradient"/><linearGradient id="linear-gradient-9" x1="691.63" y1="40.39" x2="14.11" y2="40.39" xlink:href="#linear-gradient"/><linearGradient id="linear-gradient-10" x1="365.5" y1="67.05" x2="14.93" y2="67.05" xlink:href="#linear-gradient"/></defs><title>fresque4Plan de travail 1fresque</title><rect class="cls-1" x="184.36" y="266.98" width="163.16" height="16" rx="5.67"/><path class="cls-2" d="M292.15,230.4H242.68a3.26,3.26,0,0,0-3.26,3.26v13.12a3.26,3.26,0,0,0,3.26,3.26H258a3.25,3.25,0,0,1,2.86,1.7l3.69,6.74a3.26,3.26,0,0,0,5.73,0l3.68-6.74a3.26,3.26,0,0,1,2.87-1.7h15.32a3.26,3.26,0,0,0,3.26-3.26V233.66A3.26,3.26,0,0,0,292.15,230.4Z"/><text class="cls-3" transform="translate(255.02 244.04)">2020</text><path class="cls-4" d="M376.85,267l-7.92-5.13V267H17v16H368.93v5.11l7.91-5.11,12.36-8Z"/><rect class="cls-5" x="203.92" y="307.45" width="138.57" height="138.57"/><text class="cls-6" transform="translate(249.26 321.14)">Alternance<tspan x="-10.64" y="10.81">Développeur Jr.</tspan><tspan x="9.73" y="21.62">BAC +2</tspan></text><text class="cls-7" transform="translate(250.6 382.97)">HTML / CSS<tspan x="0.69" y="10.16">JavaScript</tspan><tspan x="15.18" y="20.33">SQL</tspan><tspan x="-0.69" y="30.49">Vue / Node</tspan><tspan x="6.2" y="40.65">API REST</tspan><tspan x="0.69" y="50.82">WordPress</tspan></text><text class="cls-8" transform="translate(237.43 355.59)">StaffMe Academy - <tspan x="5.3" y="10.16">OpenClassrooms</tspan></text><rect id="_Tranche_" data-name="&lt;Tranche&gt;" class="cls-9" x="-17.89" y="445.31" width="232.89" height="232.24"/><rect class="cls-10" x="41.35" y="267.16" width="87.63" height="16.05" rx="5.67"/><path class="cls-11" d="M110.72,230.46H61.1a3.26,3.26,0,0,0-3.27,3.27v13.16a3.26,3.26,0,0,0,3.27,3.27H76.47a3.27,3.27,0,0,1,2.87,1.71l3.7,6.76a3.27,3.27,0,0,0,5.74,0l3.7-6.76a3.28,3.28,0,0,1,2.87-1.71h15.37a3.27,3.27,0,0,0,3.28-3.27V233.73A3.27,3.27,0,0,0,110.72,230.46Z"/><text class="cls-12" transform="translate(73.19 244.14)">2019</text><rect class="cls-5" x="19.24" y="307.75" width="139.01" height="139.01"/><text class="cls-13" transform="translate(44.51 324.07)">DIPLÔMÉ BAC +4</text><text class="cls-14" transform="translate(34.17 370.47)">Responsable marketing &amp; <tspan x="20.22" y="10.2">communication</tspan><tspan class="cls-15"><tspan x="-8.03" y="37.38">AUTO-ENTREPRENEUR</tspan></tspan><tspan class="cls-16"><tspan x="14.91" y="47.58">SARL socialmpact</tspan></tspan><tspan class="cls-17"><tspan x="20.12" y="57.77">Consultant Web</tspan></tspan></text><text class="cls-18" transform="translate(51.4 342.38)">Sciences U - Lille<tspan x="-1.88" y="10.2">OpenClassrooms</tspan></text><rect class="cls-19" x="28.53" y="59.87" width="190.56" height="14.37" rx="5.13"/><rect class="cls-20" x="240.21" y="59.87" width="110.91" height="14.37" rx="5.13"/><path class="cls-21" d="M93.41,27H49A2.93,2.93,0,0,0,46.06,30V41.73A2.93,2.93,0,0,0,49,44.66H62.75a2.92,2.92,0,0,1,2.57,1.52l3.31,6.06a2.93,2.93,0,0,0,5.14,0l3.31-6.06a2.94,2.94,0,0,1,2.58-1.52H93.41a2.93,2.93,0,0,0,2.93-2.93V30A2.93,2.93,0,0,0,93.41,27Z"/><text class="cls-22" transform="translate(60.64 40.39)">2016</text><path class="cls-23" d="M315.14,27H270.72A2.93,2.93,0,0,0,267.79,30V41.73a2.93,2.93,0,0,0,2.93,2.93h13.76a2.92,2.92,0,0,1,2.57,1.52l3.31,6.06a2.93,2.93,0,0,0,5.14,0l3.31-6.06a2.92,2.92,0,0,1,2.57-1.52h13.76a2.93,2.93,0,0,0,2.93-2.93V30A2.93,2.93,0,0,0,315.14,27Z"/><text class="cls-22" transform="translate(282.01 39.27)">2018</text><rect class="cls-5" x="13" y="96.21" width="200.91" height="124.43"/><rect class="cls-5" x="230.03" y="96.21" width="124.43" height="124.43"/><text class="cls-24" transform="translate(110.43 146.38)">CMS<tspan x="-31.2" y="9.13">(WordPress - Drupal)</tspan><tspan x="-16.67" y="18.25">HTML5 / CSS3</tspan><tspan x="-32.55" y="27.38">Notions de JavaScript</tspan></text><text class="cls-25" transform="translate(89.1 111.21)">Formation</text><text class="cls-25" transform="translate(237.67 111.21)">Google Digital Active</text><text class="cls-26" transform="translate(278.18 127.2)">Google</text><text class="cls-24" transform="translate(251.13 149.92)">Certification <tspan class="cls-27" x="48.03" y="0">Analytics</tspan><tspan x="-4.8" y="9.13">Certification </tspan><tspan class="cls-28" x="43.24" y="9.13">Google Ads</tspan><tspan x="-2.96" y="18.25">Certification </tspan><tspan class="cls-29" x="45.07" y="18.25">Réseau de </tspan><tspan class="cls-29"><tspan x="20.73" y="27.38">Recherche</tspan></tspan></text><path class="cls-30" d="M364.82,59.87H22.61a7.18,7.18,0,1,0,0,14.36H364.83C365,69.45,365.09,64.66,364.82,59.87Z"/><text class="cls-26" transform="translate(84.79 127.2)">OpenClassrooms</text></svg>