<svg id="Calque_1" data-name="Calque 1" xmlns="http://www.w3.org/2000/svg" viewBox="0 0 1366 768"><title>logo2Plan de travail 1logo</title><path d="M463.1,270V141.36h4.8V270Zm10.56,0V141.36h4.8V270Zm10.56,0V141.36H489V270Zm10.08,0v-4.8h38.88q11.67,0,20.08-4.56a32.47,32.47,0,0,0,13-12.48,35.42,35.42,0,0,0,4.56-18,46.08,46.08,0,0,0-1.52-11.92,29.61,29.61,0,0,0-4.72-10c.64-.53,1.25-1.09,1.84-1.68a9.5,9.5,0,0,0,1.52-2q7.68,10.08,7.68,25.6a40.2,40.2,0,0,1-5.2,20.4,37.1,37.1,0,0,1-14.72,14.24q-9.52,5.2-22.48,5.2Zm0-10.56v-4.8h38.88q13.27,0,20.16-6.88t6.88-17.6a33.91,33.91,0,0,0-1-8.08,26.51,26.51,0,0,0-2.72-7,11,11,0,0,0,2.24-1.44c.64-.53,1.17-1,1.6-1.44a28.45,28.45,0,0,1,3.44,8.16,38.89,38.89,0,0,1,1.2,9.76q0,12.65-8.32,21t-23.52,8.32Zm0-10.56v-4.8h38.88q8.79,0,12.64-3.84a13.63,13.63,0,0,0,3.84-10.08,17.4,17.4,0,0,0-3-10.24,12.51,12.51,0,0,0,2.24-.88c.74-.37,1.49-.77,2.24-1.2a23,23,0,0,1,3.36,12.32q0,8.33-5.2,13.52t-16.08,5.2Zm.48-32.64v-4.8h37.6a34.37,34.37,0,0,0,16.56-4,30.26,30.26,0,0,0,11.84-11.36,36.13,36.13,0,0,0,0-34.56,30.4,30.4,0,0,0-11.84-11.36,34.48,34.48,0,0,0-16.56-4h-37.6v-4.8h37.6a38.7,38.7,0,0,1,19,4.72,35.77,35.77,0,0,1,13.6,13.12,40.63,40.63,0,0,1,0,39.2,35.7,35.7,0,0,1-13.6,13.12,38.59,38.59,0,0,1-19,4.72Zm0-10.56v-4.8h37.6A22.68,22.68,0,0,0,548.14,195q6.48-5.83,6.48-16.24t-6.48-16.24a22.73,22.73,0,0,0-15.76-5.84h-37.6v-4.8h37.6A28.28,28.28,0,0,1,546,155.2a25.57,25.57,0,0,1,9.76,9.28,29.7,29.7,0,0,1,0,28.64A25.49,25.49,0,0,1,546,202.4a28.17,28.17,0,0,1-13.6,3.28Zm0-10.56v-4.8h37.6a12.64,12.64,0,0,0,8.24-2.8q3.43-2.79,3.44-8.72t-3.44-8.8a12.91,12.91,0,0,0-8.24-2.72h-37.6v-4.8h37.6a17.25,17.25,0,0,1,11.68,4.16q4.8,4.17,4.8,12.16T544.06,191a17.2,17.2,0,0,1-11.68,4.16Z"/><path d="M586.94,270V205.68h4.8V270Zm10.56,0V205.68h38.24v4.8H602.3v5.76h33.44V221H602.3v9.12h28.32V235H602.3v5.76h28.32v4.8H602.3v9.12h33.44v4.8H602.3v5.76h33.44V270Z"/><path d="M645,270V205.68h4.8V270Zm10.56,0V205.68h4.8l27.52,38.24V205.68h4.8V270h-4.8l-27.52-38.24V270Zm32.32-17.92-27.52-38.24v9.76l27.52,38.24ZM698.46,270V205.68h4.8V270Z"/><path d="M749.17,271.6a34.83,34.83,0,0,1-17.6-4.48A34.06,34.06,0,0,1,719.1,255a34,34,0,0,1,0-34.32,34.4,34.4,0,0,1,12.47-12.08,36.81,36.81,0,0,1,35.2,0,34.35,34.35,0,0,1,12.48,12.08,34,34,0,0,1,0,34.32,34,34,0,0,1-12.48,12.16A34.78,34.78,0,0,1,749.17,271.6Zm29.93-33.76a28,28,0,0,0-3.93-14.8,28.8,28.8,0,0,0-10.72-10.32,32.3,32.3,0,0,0-30.55,0A28.91,28.91,0,0,0,723.17,223a29.75,29.75,0,0,0,0,29.52A28.65,28.65,0,0,0,733.9,263a32.3,32.3,0,0,0,30.55,0,28.55,28.55,0,0,0,10.72-10.4A28.08,28.08,0,0,0,779.1,237.84ZM749.17,261a24.81,24.81,0,0,1-12.32-3,23.16,23.16,0,0,1-8.64-8.32,23.57,23.57,0,0,1,0-23.68,23.23,23.23,0,0,1,8.64-8.32,26.48,26.48,0,0,1,24.64,0,23.19,23.19,0,0,1,8.65,8.32,23.57,23.57,0,0,1,0,23.68,23.11,23.11,0,0,1-8.65,8.32A24.76,24.76,0,0,1,749.17,261Zm19.36-23.2a17.39,17.39,0,0,0-5.51-13.2,21,21,0,0,0-27.69,0,18.45,18.45,0,0,0,0,26.32A20.79,20.79,0,0,0,763,251,17.44,17.44,0,0,0,768.53,237.84Z"/><path d="M785.65,194.8l12.8-16h6.08l-12.8,16Zm9.44,75.2V205.68h4.8V270Zm16-75.2-5.92-7.52,3-3.84,9.12,11.36ZM805.65,270V205.68h4.8V270Z"/><path d="M818.45,210.48v-4.8h52.64v4.8ZM837,270V221H818.45v-4.8h52.64V221H852.37v49h-4.8V221h-5.76v49Z"/><path d="M837,398.64V270h4.79V398.64Zm10.56,0V270h4.79V398.64Zm10.56,0V270h4.79V398.64Zm56-46.56-45.45-65V279l48.49,69Zm-6.4,9.44-39-55.68v-8.48l41.92,59.84Zm-6.4,9.12-32.65-46.4v-8.48l35.53,50.72Zm6.4-46.24-2.89-4.32,29.92-43.36v8.48Zm6.55,9.28-2.87-4.32,23.35-33.28v8.32Zm6.4,9.12-2.88-4.16,17-24.16v8.32Zm19.84,55.84V270h4.81V398.64Zm10.57,0V270h4.79V398.64Zm10.56,0V270h4.79V398.64Z"/><path d="M1014,400.24a34.93,34.93,0,0,1-17.6-4.48,34.24,34.24,0,0,1-12.48-12.16,34.05,34.05,0,0,1,0-34.32,34.35,34.35,0,0,1,12.48-12.08,36.81,36.81,0,0,1,35.2,0,34.19,34.19,0,0,1,12.48,12.08,34.05,34.05,0,0,1,0,34.32,34.09,34.09,0,0,1-12.48,12.16A34.88,34.88,0,0,1,1014,400.24Zm29.92-33.76a28,28,0,0,0-3.92-14.8,28.8,28.8,0,0,0-10.72-10.32,32.32,32.32,0,0,0-30.56,0A29,29,0,0,0,988,351.68a29.75,29.75,0,0,0,0,29.52,28.78,28.78,0,0,0,10.72,10.4,32.32,32.32,0,0,0,30.56,0A28.63,28.63,0,0,0,1040,381.2,28.1,28.1,0,0,0,1043.89,366.48ZM1014,389.68a24.92,24.92,0,0,1-12.32-3,23.23,23.23,0,0,1-8.64-8.32,23.5,23.5,0,0,1,0-23.68,23.16,23.16,0,0,1,8.64-8.32,26.48,26.48,0,0,1,24.64,0,23,23,0,0,1,8.64,8.32,23.5,23.5,0,0,1,0,23.68,23.08,23.08,0,0,1-8.64,8.32A24.86,24.86,0,0,1,1014,389.68Zm19.36-23.2a17.33,17.33,0,0,0-5.52-13.2,21,21,0,0,0-27.68,0,18.45,18.45,0,0,0,0,26.32,20.78,20.78,0,0,0,27.68,0A17.43,17.43,0,0,0,1033.33,366.48Z"/><path d="M1059.89,334.32h4.8v40.16q0,10.23,6.16,15.6a22.67,22.67,0,0,0,29.28,0q6.16-5.37,6.16-15.6V334.32h4.8v40.32a27.29,27.29,0,0,1-3.6,13.84,23.36,23.36,0,0,1-9.2,8.72,27.08,27.08,0,0,1-12.8,3,27.58,27.58,0,0,1-12.88-3,23.1,23.1,0,0,1-9.28-8.8,26.39,26.39,0,0,1-3.44-13.76Zm10.56,0h4.8v40.16c0,3.62,1,6.26,3,7.92a11.69,11.69,0,0,0,14.4,0q3-2.49,3-7.92V334.32h4.8v40.32c-.1,5-1.63,8.77-4.56,11.28a16.46,16.46,0,0,1-21-.08q-4.48-3.84-4.48-11.2Z"/><path d="M1123.89,398.64V334.32h4.8v64.32Zm10.56,0V334.32h4.8v49h28.64v4.8h-28.64v5.76h28.64v4.8Z"/><path d="M1181.81,367.44l-22.72-33.12H1165l22.72,33.12Zm13,0-22.72-33.12H1178l13.28,19.36,13.28-19.36h5.92l-16.16,23.84,3.36,5,19.84-28.8h5.92l-22.72,33.12Zm-11.2,31.2V371.28h4.8v27.36Zm10.56,0V371.28h4.8v27.36Z"/></svg>