<svg id="Calque_1" data-name="Calque 1" xmlns="http://www.w3.org/2000/svg" xmlns:xlink="http://www.w3.org/1999/xlink" viewBox="0 0 1371.92 539.66"><defs><style>
.cls-1{fill:url(#linear-gradient);}.cls-2{fill:url(#linear-gradient-2);}.cls-3{fill:url(#linear-gradient-3);}.cls-4{fill:url(#linear-gradient-4);}.cls-5{fill:url(#linear-gradient-5);}.cls-12,.cls-15,.cls-6{font-size:17.55px;}.cls-6{fill:#fff;}.cls-11,.cls-6{font-family:Poppins-Light, Poppins;font-weight:300;}.cls-7{fill:url(#linear-gradient-6);}.cls-8{fill:url(#linear-gradient-7);}.cls-9{fill:url(#linear-gradient-8);}.cls-10{fill:#414146;}.cls-11,.cls-14{font-size:13.17px;}.cls-11,.cls-12,.cls-22{fill:#d8d8d8;}.cls-12,.cls-14,.cls-15,.cls-16,.cls-22{font-family:Poppins-Bold, Poppins;font-weight:700;}.cls-13,.cls-21{fill:none;stroke-miterlimit:10;}.cls-13{stroke:#c1271b;}.cls-14,.cls-16{fill:#ec2b5b;}.cls-15{fill:#cc5a1c;}.cls-17{fill:#ebebeb;}.cls-18{fill:#ca4f24;}.cls-19{fill:#4d8b3f;}.cls-20{fill:#69a742;}.cls-21{stroke:url(#linear-gradient-9);}.cls-22{font-size:14px;}</style><linearGradient id="linear-gradient" x1="1674.81" y1="169.3" x2="-113.22" y2="169.3" gradientUnits="userSpaceOnUse"><stop offset="0" stop-color="#ca4f24"/><stop offset="1" stop-color="#a02053"/></linearGradient><linearGradient id="linear-gradient-2" x1="1360.89" y1="169.3" x2="43.09" y2="169.3" xlink:href="#linear-gradient"/><linearGradient id="linear-gradient-3" x1="1113.87" y1="169.3" x2="350.07" y2="169.3" xlink:href="#linear-gradient"/><linearGradient id="linear-gradient-4" x1="1667.02" y1="169.3" x2="-757.42" y2="169.3" xlink:href="#linear-gradient"/><linearGradient id="linear-gradient-5" x1="1079.93" y1="123.15" x2="-92.89" y2="123.15" xlink:href="#linear-gradient"/><linearGradient id="linear-gradient-6" x1="1270.74" y1="123.15" x2="97.92" y2="123.15" xlink:href="#linear-gradient"/><linearGradient id="linear-gradient-7" x1="1308.38" y1="123.15" x2="135.55" y2="123.15" xlink:href="#linear-gradient"/><linearGradient id="linear-gradient-8" x1="1387.31" y1="123.15" x2="214.48" y2="123.15" xlink:href="#linear-gradient"/><linearGradient id="linear-gradient-9" x1="1274.92" y1="169.29" x2="99.71" y2="169.29" xlink:href="#linear-gradient"/></defs><title>fresque2Plan de travail 1fresque</title><rect class="cls-1" x="122.88" y="156.87" width="329.87" height="24.87" rx="5.67"/><rect class="cls-2" x="489.32" y="156.87" width="192" height="24.87" rx="5.67"/><rect class="cls-3" x="736.84" y="156.87" width="135.8" height="24.87" rx="5.67"/><rect class="cls-4" x="955.59" y="156.87" width="253.62" height="24.87" rx="5.67"/><path class="cls-5" d="M235.2,100H158.31a5.07,5.07,0,0,0-5.08,5.07v20.39a5.08,5.08,0,0,0,5.08,5.08h23.81a5.06,5.06,0,0,1,4.45,2.64l5.73,10.47a5.06,5.06,0,0,0,8.9,0l5.73-10.47a5.07,5.07,0,0,1,4.45-2.64H235.2a5.08,5.08,0,0,0,5.07-5.08V105.07A5.07,5.07,0,0,0,235.2,100Z"/><text class="cls-6" transform="translate(178.47 123.15)">2016</text><path class="cls-7" d="M619,100H542.13a5.08,5.08,0,0,0-5.08,5.07v20.39a5.09,5.09,0,0,0,5.08,5.08h23.81a5.08,5.08,0,0,1,4.46,2.64l5.72,10.47a5.07,5.07,0,0,0,8.91,0l5.72-10.47a5.08,5.08,0,0,1,4.46-2.64H619a5.08,5.08,0,0,0,5.07-5.08V105.07A5.07,5.07,0,0,0,619,100Z"/><text class="cls-6" transform="translate(561.68 121.21)">2018</text><path class="cls-8" d="M844.33,100H767.44a5.07,5.07,0,0,0-5.07,5.07v20.39a5.08,5.08,0,0,0,5.07,5.08h23.82a5.07,5.07,0,0,1,4.45,2.64l5.73,10.47a5.06,5.06,0,0,0,8.9,0l5.73-10.47a5.06,5.06,0,0,1,4.45-2.64h23.81a5.08,5.08,0,0,0,5.08-5.08V105.07A5.07,5.07,0,0,0,844.33,100Z"/><text class="cls-6" transform="translate(786.17 121.21)">2019</text><path class="cls-9" d="M1123.13,100h-76.89a5.07,5.07,0,0,0-5.07,5.07v20.39a5.08,5.08,0,0,0,5.07,5.08h23.82a5.07,5.07,0,0,1,4.45,2.64l5.73,10.47a5.06,5.06,0,0,0,8.9,0l5.73-10.47a5.06,5.06,0,0,1,4.45-2.64h23.81a5.08,5.08,0,0,0,5.08-5.08V105.07A5.07,5.07,0,0,0,1123.13,100Z"/><text class="cls-6" transform="translate(1065.43 121.21)">2020</text><rect class="cls-10" x="96" y="219.77" width="347.79" height="215.4"/><rect class="cls-10" x="471.68" y="219.77" width="215.4" height="215.4"/><rect class="cls-10" x="702.57" y="219.77" width="215.4" height="215.4"/><text class="cls-11" transform="translate(264.65 306.62)">CMS<tspan x="-54" y="15.8">(WordPress - Drupal)</tspan><tspan x="-28.85" y="31.6">HTML5 / CSS3</tspan><tspan x="-56.35" y="47.4">Notions de JavaScript</tspan></text><text class="cls-12" transform="translate(227.74 245.73)">Formation</text><text class="cls-12" transform="translate(484.91 245.73)">Google Digital Active</text><text class="cls-12" transform="translate(741.73 245.05)">DIPLÔMÉ BAC +4</text><line class="cls-13" x1="141.9" y1="186.95" x2="141.9" y2="202.58"/><line class="cls-13" x1="151.04" y1="186.95" x2="151.04" y2="202.58"/><line class="cls-13" x1="160.18" y1="186.95" x2="160.18" y2="202.58"/><line class="cls-13" x1="169.32" y1="186.95" x2="169.32" y2="202.58"/><line class="cls-13" x1="178.47" y1="186.95" x2="178.47" y2="202.58"/><line class="cls-13" x1="187.61" y1="186.95" x2="187.61" y2="202.58"/><line class="cls-13" x1="196.75" y1="186.95" x2="196.75" y2="219.77"/><line class="cls-13" x1="205.89" y1="186.95" x2="205.89" y2="202.58"/><line class="cls-13" x1="215.04" y1="186.95" x2="215.04" y2="202.58"/><line class="cls-13" x1="224.18" y1="186.95" x2="224.18" y2="202.58"/><line class="cls-13" x1="233.32" y1="186.95" x2="233.32" y2="202.58"/><line class="cls-13" x1="242.47" y1="186.95" x2="242.47" y2="202.58"/><line class="cls-13" x1="251.61" y1="186.95" x2="251.61" y2="202.58"/><line class="cls-13" x1="260.75" y1="186.95" x2="260.75" y2="202.58"/><line class="cls-13" x1="269.89" y1="186.95" x2="269.89" y2="202.58"/><line class="cls-13" x1="279.04" y1="186.95" x2="279.04" y2="202.58"/><line class="cls-13" x1="288.18" y1="186.95" x2="288.18" y2="202.58"/><line class="cls-13" x1="297.32" y1="186.95" x2="297.32" y2="202.58"/><line class="cls-13" x1="306.46" y1="186.95" x2="306.46" y2="202.58"/><line class="cls-13" x1="315.61" y1="186.95" x2="315.61" y2="202.58"/><line class="cls-13" x1="324.75" y1="186.95" x2="324.75" y2="202.58"/><line class="cls-13" x1="333.89" y1="186.95" x2="333.89" y2="202.58"/><line class="cls-13" x1="343.03" y1="186.95" x2="343.03" y2="202.58"/><line class="cls-13" x1="352.18" y1="186.95" x2="352.18" y2="202.58"/><line class="cls-13" x1="361.32" y1="186.95" x2="361.32" y2="202.58"/><line class="cls-13" x1="370.46" y1="186.95" x2="370.46" y2="202.58"/><line class="cls-13" x1="388.75" y1="186.95" x2="388.75" y2="202.58"/><line class="cls-13" x1="397.89" y1="186.95" x2="397.89" y2="202.58"/><line class="cls-13" x1="407.03" y1="186.95" x2="407.03" y2="202.58"/><line class="cls-13" x1="416.18" y1="186.95" x2="416.18" y2="202.58"/><line class="cls-13" x1="425.32" y1="186.95" x2="425.32" y2="202.58"/><line class="cls-13" x1="434.46" y1="186.95" x2="434.46" y2="202.58"/><line class="cls-13" x1="443.6" y1="186.95" x2="443.6" y2="202.58"/><line class="cls-13" x1="452.75" y1="186.95" x2="452.75" y2="202.58"/><line class="cls-13" x1="461.89" y1="186.95" x2="461.89" y2="202.58"/><line class="cls-13" x1="471.03" y1="186.95" x2="471.03" y2="202.58"/><line class="cls-13" x1="480.17" y1="186.95" x2="480.17" y2="202.58"/><line class="cls-13" x1="489.32" y1="186.95" x2="489.32" y2="202.58"/><line class="cls-13" x1="498.46" y1="186.95" x2="498.46" y2="202.58"/><line class="cls-13" x1="507.6" y1="186.95" x2="507.6" y2="202.58"/><line class="cls-13" x1="516.75" y1="186.95" x2="516.75" y2="202.58"/><line class="cls-13" x1="525.89" y1="186.95" x2="525.89" y2="202.58"/><line class="cls-13" x1="535.03" y1="186.95" x2="535.03" y2="202.58"/><line class="cls-13" x1="544.17" y1="186.95" x2="544.17" y2="202.58"/><line class="cls-13" x1="553.32" y1="186.95" x2="553.32" y2="202.58"/><line class="cls-13" x1="562.46" y1="186.95" x2="562.46" y2="202.58"/><line class="cls-13" x1="571.6" y1="186.95" x2="571.6" y2="202.58"/><line class="cls-13" x1="589.89" y1="186.95" x2="589.89" y2="202.58"/><line class="cls-13" x1="599.03" y1="186.95" x2="599.03" y2="202.58"/><line class="cls-13" x1="608.17" y1="186.95" x2="608.17" y2="202.58"/><line class="cls-13" x1="617.32" y1="186.95" x2="617.32" y2="202.58"/><line class="cls-13" x1="626.46" y1="186.95" x2="626.46" y2="202.58"/><line class="cls-13" x1="635.6" y1="186.95" x2="635.6" y2="202.58"/><line class="cls-13" x1="644.74" y1="186.95" x2="644.74" y2="202.58"/><line class="cls-13" x1="653.89" y1="186.95" x2="653.89" y2="202.58"/><line class="cls-13" x1="663.03" y1="186.95" x2="663.03" y2="202.58"/><line class="cls-13" x1="672.17" y1="186.95" x2="672.17" y2="202.58"/><line class="cls-13" x1="681.31" y1="186.95" x2="681.31" y2="202.58"/><line class="cls-13" x1="690.46" y1="186.95" x2="690.46" y2="202.58"/><line class="cls-13" x1="699.6" y1="186.95" x2="699.6" y2="202.58"/><line class="cls-13" x1="708.74" y1="186.95" x2="708.74" y2="202.58"/><line class="cls-13" x1="717.88" y1="186.95" x2="717.88" y2="202.58"/><line class="cls-13" x1="727.03" y1="186.95" x2="727.03" y2="202.58"/><line class="cls-13" x1="736.17" y1="186.95" x2="736.17" y2="202.58"/><line class="cls-13" x1="745.31" y1="186.95" x2="745.31" y2="202.58"/><line class="cls-13" x1="754.46" y1="186.95" x2="754.46" y2="202.58"/><line class="cls-13" x1="763.6" y1="186.95" x2="763.6" y2="202.58"/><line class="cls-13" x1="772.74" y1="186.95" x2="772.74" y2="202.58"/><line class="cls-13" x1="791.03" y1="186.95" x2="791.03" y2="202.58"/><line class="cls-13" x1="800.17" y1="186.95" x2="800.17" y2="202.58"/><line class="cls-13" x1="809.31" y1="186.95" x2="809.31" y2="219.77"/><line class="cls-13" x1="818.45" y1="186.95" x2="818.45" y2="202.58"/><line class="cls-13" x1="827.6" y1="186.95" x2="827.6" y2="202.58"/><line class="cls-13" x1="836.74" y1="186.95" x2="836.74" y2="202.58"/><line class="cls-13" x1="845.88" y1="186.95" x2="845.88" y2="202.58"/><line class="cls-13" x1="855.02" y1="186.95" x2="855.02" y2="202.58"/><line class="cls-13" x1="864.17" y1="186.95" x2="864.17" y2="202.58"/><line class="cls-13" x1="873.31" y1="186.95" x2="873.31" y2="202.58"/><line class="cls-13" x1="882.45" y1="186.95" x2="882.45" y2="202.58"/><line class="cls-13" x1="891.6" y1="186.95" x2="891.6" y2="202.58"/><line class="cls-13" x1="900.74" y1="186.95" x2="900.74" y2="202.58"/><line class="cls-13" x1="909.88" y1="186.95" x2="909.88" y2="202.58"/><line class="cls-13" x1="919.02" y1="186.95" x2="919.02" y2="202.58"/><line class="cls-13" x1="928.17" y1="186.95" x2="928.17" y2="202.58"/><line class="cls-13" x1="937.31" y1="186.95" x2="937.31" y2="202.58"/><line class="cls-13" x1="946.45" y1="186.95" x2="946.45" y2="202.58"/><line class="cls-13" x1="955.59" y1="186.95" x2="955.59" y2="202.58"/><line class="cls-13" x1="964.74" y1="186.95" x2="964.74" y2="202.58"/><line class="cls-13" x1="973.88" y1="186.95" x2="973.88" y2="202.58"/><line class="cls-13" x1="983.02" y1="186.95" x2="983.02" y2="202.58"/><line class="cls-13" x1="992.16" y1="186.95" x2="992.16" y2="202.58"/><line class="cls-13" x1="1001.31" y1="186.95" x2="1001.31" y2="202.58"/><line class="cls-13" x1="1010.45" y1="186.95" x2="1010.45" y2="202.58"/><line class="cls-13" x1="1019.59" y1="186.95" x2="1019.59" y2="202.58"/><line class="cls-13" x1="1028.74" y1="186.95" x2="1028.74" y2="202.58"/><line class="cls-13" x1="1037.88" y1="186.95" x2="1037.88" y2="202.58"/><line class="cls-13" x1="1047.02" y1="186.95" x2="1047.02" y2="202.58"/><line class="cls-13" x1="1056.16" y1="186.95" x2="1056.16" y2="202.58"/><line class="cls-13" x1="1065.31" y1="186.95" x2="1065.31" y2="202.58"/><line class="cls-13" x1="1074.45" y1="186.95" x2="1074.45" y2="202.58"/><line class="cls-13" x1="1083.59" y1="186.95" x2="1083.59" y2="202.58"/><line class="cls-13" x1="1092.73" y1="186.95" x2="1092.73" y2="219.77"/><line class="cls-13" x1="1101.88" y1="186.95" x2="1101.88" y2="202.58"/><line class="cls-13" x1="1111.02" y1="186.95" x2="1111.02" y2="202.58"/><line class="cls-13" x1="1120.16" y1="186.95" x2="1120.16" y2="202.58"/><line class="cls-13" x1="1129.3" y1="186.95" x2="1129.3" y2="202.58"/><line class="cls-13" x1="1138.45" y1="186.95" x2="1138.45" y2="202.58"/><line class="cls-13" x1="1147.59" y1="186.95" x2="1147.59" y2="202.58"/><line class="cls-13" x1="1156.73" y1="186.95" x2="1156.73" y2="202.58"/><line class="cls-13" x1="1165.88" y1="186.95" x2="1165.88" y2="202.58"/><line class="cls-13" x1="1175.02" y1="186.95" x2="1175.02" y2="202.58"/><line class="cls-13" x1="1184.16" y1="186.95" x2="1184.16" y2="202.58"/><line class="cls-13" x1="1193.3" y1="186.95" x2="1193.3" y2="202.58"/><line class="cls-13" x1="1202.45" y1="186.95" x2="1202.45" y2="202.58"/><line class="cls-13" x1="1211.59" y1="186.95" x2="1211.59" y2="202.58"/><line class="cls-13" x1="1220.73" y1="186.95" x2="1220.73" y2="202.58"/><line class="cls-13" x1="1229.87" y1="186.95" x2="1229.87" y2="202.58"/><line class="cls-13" x1="379.61" y1="186.95" x2="379.61" y2="219.77"/><line class="cls-13" x1="580.74" y1="186.95" x2="580.74" y2="219.77"/><line class="cls-13" x1="781.88" y1="186.95" x2="781.88" y2="202.58"/><text class="cls-14" transform="translate(555.05 273.43)">Google</text><text class="cls-11" transform="translate(705.5 316.96)">Responsable marketing &amp; com<tspan x="200.8" y="0">-</tspan><tspan x="66.52" y="15.8">munication</tspan><tspan class="cls-15"><tspan x="7.77" y="57.93">AUTO-ENTREPRENEUR</tspan></tspan><tspan class="cls-16"><tspan x="43.32" y="73.73">SARL socialmpact</tspan></tspan><tspan class="cls-17"><tspan x="51.39" y="89.52">Consultant Web</tspan></tspan></text><text class="cls-11" transform="translate(508.21 312.75)">Certification <tspan class="cls-18" x="83.15" y="0">Analytics</tspan><tspan x="-8.3" y="15.8">Certification </tspan><tspan class="cls-19" x="74.85" y="15.8">Google Ads</tspan><tspan x="-18.3" y="31.6">Certification </tspan><tspan class="cls-20" x="64.85" y="31.6">Réseau de Re</tspan><tspan class="cls-20" x="153.1" y="31.6">-</tspan><tspan class="cls-20"><tspan x="43.84" y="47.4">cherche</tspan></tspan></text><text class="cls-14" transform="translate(752.42 273.43)">Sciences U - Lille<tspan x="-2.92" y="15.8">OpenClassrooms</tspan></text><path class="cls-21" d="M1254.8,156.87l-12.31-8v8H112.63a12.44,12.44,0,0,0,0,24.87H1242.49v7.94l12.29-7.94L1274,169.29Z"/><text class="cls-14" transform="translate(220.28 273.43)">OpenClassrooms</text><rect class="cls-10" x="985.99" y="219.77" width="215.4" height="215.4"/><text class="cls-22" transform="translate(1056.47 241.05)">Alternance<tspan x="-16.54" y="16.8">Développeur Jr.</tspan><tspan x="15.13" y="33.6">BAC +2</tspan></text><text class="cls-11" transform="translate(1058.56 337.17)">HTML / CSS<tspan x="1.07" y="15.8">JavaScript</tspan><tspan x="23.59" y="31.6">SQL</tspan><tspan x="-1.07" y="47.4">Vue / Node</tspan><tspan x="9.64" y="63.19">API REST</tspan><tspan x="1.08" y="78.99">WordPress</tspan></text><text class="cls-14" transform="translate(1038.09 294.6)">StaffMe Academy - <tspan x="8.23" y="15.8">OpenClassrooms</tspan></text></svg>