<svg id="Calque_1" data-name="Calque 1" xmlns="http://www.w3.org/2000/svg" viewBox="0 0 760.31 258.87"><title>logo3Plan de travail 1logo</title><path style="fill:#fff;" d="M0,128.64V0H4.8V128.64Zm10.56,0V0h4.8V128.64Zm10.56,0V0h4.8V128.64Zm10.08,0v-4.8H70.08q11.69,0,20.08-4.56a32.47,32.47,0,0,0,13-12.48,35.42,35.42,0,0,0,4.56-18,46.08,46.08,0,0,0-1.52-11.92,29.42,29.42,0,0,0-4.72-10c.64-.53,1.25-1.09,1.84-1.68a9.18,9.18,0,0,0,1.52-2q7.68,10.08,7.68,25.6a40.1,40.1,0,0,1-5.2,20.4,37.1,37.1,0,0,1-14.72,14.24q-9.53,5.2-22.48,5.2Zm0-10.56v-4.8H70.08q13.28,0,20.16-6.88t6.88-17.6a33.84,33.84,0,0,0-1-8.08,26.51,26.51,0,0,0-2.72-7,12,12,0,0,0,2.24-1.44c.64-.53,1.17-1,1.6-1.44A28.45,28.45,0,0,1,100.72,79a38.89,38.89,0,0,1,1.2,9.76q0,12.65-8.32,21t-23.52,8.32Zm0-10.56v-4.8H70.08q8.79,0,12.64-3.84A13.63,13.63,0,0,0,86.56,88.8a17.38,17.38,0,0,0-3-10.24,12.23,12.23,0,0,0,2.24-.88c.74-.37,1.49-.77,2.24-1.2A23,23,0,0,1,91.36,88.8q0,8.33-5.2,13.52t-16.08,5.2Zm.48-32.64v-4.8h37.6a34.37,34.37,0,0,0,16.56-4A30.2,30.2,0,0,0,97.68,54.72a33.06,33.06,0,0,0,4.4-17.28,33.09,33.09,0,0,0-4.4-17.28A30.34,30.34,0,0,0,85.84,8.8a34.48,34.48,0,0,0-16.56-4H31.68V0h37.6a38.7,38.7,0,0,1,19,4.72,35.77,35.77,0,0,1,13.6,13.12,37.38,37.38,0,0,1,5,19.6,37.35,37.35,0,0,1-5,19.6,35.7,35.7,0,0,1-13.6,13.12,38.59,38.59,0,0,1-19,4.72Zm0-10.56v-4.8h37.6A22.68,22.68,0,0,0,85,53.68q6.48-5.84,6.48-16.24T85,21.2a22.73,22.73,0,0,0-15.76-5.84H31.68v-4.8h37.6a28.25,28.25,0,0,1,13.6,3.28,25.49,25.49,0,0,1,9.76,9.28,26.9,26.9,0,0,1,3.68,14.32,26.88,26.88,0,0,1-3.68,14.32A25.49,25.49,0,0,1,82.88,61a28.14,28.14,0,0,1-13.6,3.28Zm0-10.56V49h37.6a12.62,12.62,0,0,0,8.24-2.8Q81,43.36,81,37.44q0-6.07-3.44-8.8a12.89,12.89,0,0,0-8.24-2.72H31.68v-4.8h37.6A17.23,17.23,0,0,1,81,25.28q4.8,4.17,4.8,12.16T81,49.6a17.18,17.18,0,0,1-11.68,4.16Z"/><path style="fill:#fff" d="M123.84,128.64V64.32h4.8v64.32Zm10.56,0V64.32h38.24v4.8H139.2v5.76h33.44v4.8H139.2V88.8h28.32v4.8H139.2v5.76h28.32v4.8H139.2v9.12h33.44v4.8H139.2v5.76h33.44v4.8Z"/><path style="fill:#fff" d="M181.92,128.64V64.32h4.8v64.32Zm10.56,0V64.32h4.8l27.52,38.24V64.32h4.8v64.32h-4.8L197.28,90.4v38.24Zm32.32-17.92L197.28,72.48v9.76l27.52,38.24Zm10.56,17.92V64.32h4.8v64.32Z"/><path style="fill:#fff" d="M286.08,130.24a34.78,34.78,0,0,1-17.6-4.48A34.09,34.09,0,0,1,256,113.6a34.05,34.05,0,0,1,0-34.32A34.35,34.35,0,0,1,268.48,67.2a36.81,36.81,0,0,1,35.2,0,34.51,34.51,0,0,1,12.48,12.08,34.05,34.05,0,0,1,0,34.32,34.24,34.24,0,0,1-12.48,12.16A34.83,34.83,0,0,1,286.08,130.24ZM316,96.48a28.07,28.07,0,0,0-3.92-14.8,29,29,0,0,0-10.72-10.32,32.32,32.32,0,0,0-30.56,0,28.8,28.8,0,0,0-10.72,10.32,29.75,29.75,0,0,0,0,29.52,28.55,28.55,0,0,0,10.72,10.4,32.32,32.32,0,0,0,30.56,0,28.7,28.7,0,0,0,10.72-10.4A28.17,28.17,0,0,0,316,96.48Zm-29.92,23.2a24.76,24.76,0,0,1-12.32-3,23,23,0,0,1-8.64-8.32,23.5,23.5,0,0,1,0-23.68,23.08,23.08,0,0,1,8.64-8.32,26.48,26.48,0,0,1,24.64,0A23.23,23.23,0,0,1,307,84.64a23.5,23.5,0,0,1,0,23.68,23.16,23.16,0,0,1-8.64,8.32A24.81,24.81,0,0,1,286.08,119.68Zm19.36-23.2a17.36,17.36,0,0,0-5.52-13.2,21,21,0,0,0-27.68,0,18.45,18.45,0,0,0,0,26.32,20.78,20.78,0,0,0,27.68,0A17.41,17.41,0,0,0,305.44,96.48Z"/><path style="fill:#fff" d="M322.55,53.44l12.8-16h6.08l-12.8,16Zm9.44,75.2V64.32h4.8v64.32Zm16-75.2-5.92-7.52,3-3.84,9.12,11.36Zm-5.44,75.2V64.32h4.8v64.32Z"/><path style="fill:#fff" d="M355.35,69.12v-4.8H408v4.8Zm18.56,59.52v-49H355.35v-4.8H408v4.8H389.27v49h-4.8v-49h-5.76v49Z"/><path style="fill:#fff" d="M373.92,257.27V128.63h4.8V257.27Zm10.56,0V128.63h4.8V257.27Zm10.56,0V128.63h4.8V257.27Zm56-46.56-45.44-65v-8.16l48.48,69Zm-6.4,9.44-39-55.68V156l41.92,59.84Zm-6.4,9.12-32.64-46.4v-8.48l35.52,50.72Zm6.4-46.24-2.88-4.32,29.92-43.36v8.48Zm6.56,9.28L448.32,188l23.36-33.28V163Zm6.4,9.12-2.88-4.16,17-24.16v8.32Zm19.84,55.84V128.63h4.8V257.27Zm10.56,0V128.63h4.8V257.27Zm10.56,0V128.63h4.8V257.27Z"/><path style="fill:#fff" d="M550.87,258.87a34.77,34.77,0,0,1-17.59-4.48,34,34,0,0,1-12.48-12.16,34.05,34.05,0,0,1,0-34.32,34.35,34.35,0,0,1,12.48-12.08,36.81,36.81,0,0,1,35.2,0A34.4,34.4,0,0,1,581,207.91a34,34,0,0,1,0,34.32,34.06,34.06,0,0,1-12.47,12.16A34.84,34.84,0,0,1,550.87,258.87Zm29.93-33.76a28,28,0,0,0-3.93-14.8A28.85,28.85,0,0,0,566.16,200a32.32,32.32,0,0,0-30.56,0,28.91,28.91,0,0,0-10.73,10.32,29.75,29.75,0,0,0,0,29.52,28.65,28.65,0,0,0,10.73,10.4,32.32,32.32,0,0,0,30.56,0,28.6,28.6,0,0,0,10.71-10.4A28.08,28.08,0,0,0,580.8,225.11Zm-29.93,23.2a24.75,24.75,0,0,1-12.31-3,23.11,23.11,0,0,1-8.65-8.32,23.57,23.57,0,0,1,0-23.68,23.19,23.19,0,0,1,8.65-8.32,26.48,26.48,0,0,1,24.64,0,23.23,23.23,0,0,1,8.64,8.32,23.5,23.5,0,0,1,0,23.68,23.16,23.16,0,0,1-8.64,8.32A24.82,24.82,0,0,1,550.87,248.31Zm19.37-23.2a17.36,17.36,0,0,0-5.52-13.2,21,21,0,0,0-27.68,0,18.45,18.45,0,0,0,0,26.32,20.78,20.78,0,0,0,27.68,0A17.41,17.41,0,0,0,570.24,225.11Z"/><path style="fill:#fff" d="M596.79,193h4.8v40.16q0,10.24,6.16,15.6a22.67,22.67,0,0,0,29.28,0q6.16-5.36,6.16-15.6V193H648v40.32a27.16,27.16,0,0,1-3.6,13.84,23.22,23.22,0,0,1-9.2,8.72,26.94,26.94,0,0,1-12.8,3,27.46,27.46,0,0,1-12.88-3,23,23,0,0,1-9.28-8.8,26.36,26.36,0,0,1-3.44-13.76Zm10.56,0h4.8v40.16c0,3.63,1,6.27,3,7.92a11.69,11.69,0,0,0,14.4,0q3-2.47,3-7.92V193h4.8v40.32q-.15,7.53-4.56,11.28a16.46,16.46,0,0,1-21-.08q-4.47-3.84-4.48-11.2Z"/><path style="fill:#fff" d="M660.79,257.27V193h4.8v64.32Zm10.56,0V193h4.8v49h28.64v4.8H676.15v5.76h28.64v4.8Z"/><path style="fill:#fff" d="M718.71,226.07,696,193h5.92l22.72,33.12Zm13,0L709,193h5.92l13.28,19.36L741.43,193h5.92l-16.16,23.84,3.36,5L754.39,193h5.92l-22.72,33.12Zm-11.2,31.2V229.91h4.8v27.36Zm10.56,0V229.91h4.8v27.36Z"/></svg>