<svg id="fresquePhone2" data-name="Calque 1" xmlns="http://www.w3.org/2000/svg" xmlns:xlink="http://www.w3.org/1999/xlink" viewBox="0 0 352.5 193.98"><defs><style>.cls-1{fill:url(#linear-gradient);}.cls-2{fill:url(#linear-gradient-2);}.cls-3{fill:url(#linear-gradient-3);}.cls-4,.cls-8{font-size:10.14px;}.cls-4{fill:#fff;}.cls-4,.cls-7{font-family:Poppins-Light, Poppins;font-weight:300;}.cls-5{fill:url(#linear-gradient-4);}.cls-6{fill:#414146;}.cls-7,.cls-9{font-size:7.61px;}.cls-7,.cls-8{fill:#d8d8d8;}.cls-8,.cls-9{font-family:Poppins-Bold, Poppins;font-weight:700;}.cls-9{fill:#ec2b5b;}.cls-10{fill:#ca4f24;}.cls-11{fill:#4d8b3f;}.cls-12{fill:#69a742;}.cls-13{fill:none;stroke-miterlimit:10;stroke:url(#linear-gradient-5);}</style><linearGradient id="linear-gradient" x1="912.05" y1="40.03" x2="-120.87" y2="40.03" gradientUnits="userSpaceOnUse"><stop offset="0" stop-color="#ca4f24"/><stop offset="1" stop-color="#a02053"/></linearGradient><linearGradient id="linear-gradient-2" x1="730.71" y1="40.03" x2="-30.56" y2="40.03" xlink:href="#linear-gradient"/><linearGradient id="linear-gradient-3" x1="568.4" y1="13.37" x2="-109.12" y2="13.37" xlink:href="#linear-gradient"/><linearGradient id="linear-gradient-4" x1="678.63" y1="13.37" x2="1.11" y2="13.37" xlink:href="#linear-gradient"/><linearGradient id="linear-gradient-5" x1="352.5" y1="40.04" x2="1.93" y2="40.04" xlink:href="#linear-gradient"/></defs><title>Plan de travail 1fresquePhone2Official</title><rect class="cls-1" x="15.53" y="32.85" width="190.56" height="14.37" rx="5.13"/><rect class="cls-2" x="227.21" y="32.85" width="110.91" height="14.37" rx="5.13"/><path class="cls-3" d="M80.41,0H36a2.93,2.93,0,0,0-2.93,2.93V14.71A2.93,2.93,0,0,0,36,17.64H49.75a2.93,2.93,0,0,1,2.57,1.53l3.31,6a2.93,2.93,0,0,0,5.14,0l3.31-6a3,3,0,0,1,2.58-1.53H80.41a2.93,2.93,0,0,0,2.93-2.93V2.93A2.93,2.93,0,0,0,80.41,0Z"/><text class="cls-4" transform="translate(47.64 13.37)">2016</text><path class="cls-5" d="M302.14,0H257.72a2.93,2.93,0,0,0-2.93,2.93V14.71a2.93,2.93,0,0,0,2.93,2.93h13.76a2.93,2.93,0,0,1,2.57,1.53l3.31,6a2.93,2.93,0,0,0,5.14,0l3.31-6a2.93,2.93,0,0,1,2.57-1.53h13.76a2.93,2.93,0,0,0,2.93-2.93V2.93A2.93,2.93,0,0,0,302.14,0Z"/><text class="cls-4" transform="translate(269.01 12.25)">2018</text><rect class="cls-6" y="69.19" width="200.91" height="124.43"/><rect class="cls-6" x="217.03" y="69.19" width="124.43" height="124.43"/><text class="cls-7" transform="translate(97.43 119.36)">CMS<tspan x="-31.2" y="9.13">(WordPress - Drupal)</tspan><tspan x="-16.67" y="18.25">HTML5 / CSS3</tspan><tspan x="-32.55" y="27.38">Notions de JavaScript</tspan></text><text class="cls-8" transform="translate(76.1 84.19)">Formation</text><text class="cls-8" transform="translate(224.67 84.19)">Google Digital Active</text><text class="cls-9" transform="translate(265.18 100.19)">Google</text><text class="cls-7" transform="translate(238.12 122.9)">Certification <tspan class="cls-10" x="48.03" y="0">Analytics</tspan><tspan x="-4.8" y="9.13">Certification </tspan><tspan class="cls-11" x="43.24" y="9.13">Google Ads</tspan><tspan x="-2.96" y="18.25">Certification </tspan><tspan class="cls-12" x="45.07" y="18.25">Réseau de </tspan><tspan class="cls-12"><tspan x="20.73" y="27.38">Recherche</tspan></tspan></text><path class="cls-13" d="M351.82,32.86H9.61a7.18,7.18,0,1,0,0,14.36H351.83C352,42.43,352.09,37.64,351.82,32.86Z"/><text class="cls-9" transform="translate(71.79 100.19)">OpenClassrooms</text></svg>