<svg id="fresquePhone1" data-name="Calque 1" xmlns="http://www.w3.org/2000/svg" xmlns:xlink="http://www.w3.org/1999/xlink" viewBox="0 0 373.62 226.27"><defs><style>.cls-1{fill:url(#linear-gradient);}.cls-2{fill:url(#linear-gradient-2);}.cls-3{font-size:11.29px;}.cls-11,.cls-3{fill:#fff;}.cls-11,.cls-13,.cls-3,.cls-7{font-family:Poppins-Light, Poppins;font-weight:300;}.cls-4{fill:none;stroke-miterlimit:10;stroke:url(#linear-gradient-3);}.cls-5{fill:#414146;}.cls-6{font-size:9.01px;}.cls-12,.cls-13,.cls-6,.cls-7{fill:#d8d8d8;}.cls-12,.cls-14,.cls-15,.cls-17,.cls-6,.cls-8{font-family:Poppins-Bold, Poppins;font-weight:700;}.cls-7,.cls-8{font-size:8.47px;}.cls-15,.cls-17,.cls-8{fill:#ec2b5b;}.cls-9{fill:url(#linear-gradient-4);}.cls-10{fill:url(#linear-gradient-5);}.cls-11,.cls-12,.cls-14{font-size:11.33px;}.cls-13,.cls-17{font-size:8.5px;}.cls-14{fill:#cc5a1c;}.cls-16{fill:#ebebeb;}</style><linearGradient id="linear-gradient" x1="625.55" y1="44.58" x2="-934.17" y2="44.58" gradientUnits="userSpaceOnUse"><stop offset="0" stop-color="#ca4f24"/><stop offset="1" stop-color="#a02053"/></linearGradient><linearGradient id="linear-gradient-2" x1="571.23" y1="14.89" x2="-608.95" y2="14.89" xlink:href="#linear-gradient"/><linearGradient id="linear-gradient-3" x1="373.62" y1="44.58" x2="0" y2="44.58" xlink:href="#linear-gradient"/><linearGradient id="linear-gradient-4" x1="268.16" y1="44.78" x2="-224.75" y2="44.78" xlink:href="#linear-gradient"/><linearGradient id="linear-gradient-5" x1="393.68" y1="15" x2="-363.18" y2="15" xlink:href="#linear-gradient"/></defs><title>Plan de travail 1fresquePhone1Official</title><rect class="cls-1" x="167.86" y="36.58" width="163.16" height="16" rx="5.67"/><path class="cls-2" d="M305.39,0H228c-2.82,0-5.1,1.46-5.1,3.26V16.38c0,1.8,2.28,3.27,5.1,3.27h24a6,6,0,0,1,4.49,1.69l5.76,6.74c1.93,2.27,7,2.27,9,0L277,21.34a6,6,0,0,1,4.48-1.69h24c2.82,0,5.11-1.47,5.11-3.27V3.26C310.5,1.46,308.21,0,305.39,0Z"/><text class="cls-3" transform="translate(238.52 13.65)">2020-2021</text><path class="cls-4" d="M360.35,36.59l-7.92-5.12v5.12H.5v16H352.43v5.11l7.91-5.11,12.36-8Z"/><rect class="cls-5" x="187.42" y="77.05" width="138.57" height="138.57"/><text class="cls-6" transform="translate(232.76 90.74)">Alternance<tspan x="-10.64" y="10.81">Développeur Jr.</tspan><tspan x="9.73" y="21.62">BAC +2</tspan></text><text class="cls-7" transform="translate(234.1 152.58)">HTML / CSS<tspan x="0.69" y="10.16">JavaScript</tspan><tspan x="15.18" y="20.33">SQL</tspan><tspan x="-0.69" y="30.49">Vue / Node</tspan><tspan x="6.2" y="40.65">API REST</tspan><tspan x="0.69" y="50.82">WordPress</tspan></text><text class="cls-8" transform="translate(220.93 125.19)">StaffMe Academy - <tspan x="5.3" y="10.16">OpenClassrooms</tspan></text><rect class="cls-9" x="24.85" y="36.76" width="87.63" height="16.05" rx="5.67"/><path class="cls-10" d="M94.22.06H44.6a3.27,3.27,0,0,0-3.27,3.28V16.49a3.27,3.27,0,0,0,3.27,3.28H60a3.26,3.26,0,0,1,2.87,1.7l3.7,6.76a3.26,3.26,0,0,0,5.74,0L76,21.47a3.27,3.27,0,0,1,2.87-1.7H94.22a3.28,3.28,0,0,0,3.28-3.28V3.34A3.28,3.28,0,0,0,94.22.06Z"/><text class="cls-11" transform="translate(56.69 13.75)">2019</text><rect class="cls-5" x="2.74" y="77.35" width="139.01" height="139.01"/><text class="cls-12" transform="translate(28.01 93.67)">DIPLÔMÉ BAC +4</text><text class="cls-13" transform="translate(17.67 140.07)">Responsable marketing &amp; <tspan x="20.22" y="10.2">communication</tspan><tspan class="cls-14"><tspan x="-8.03" y="37.38">AUTO-ENTREPRENEUR</tspan></tspan><tspan class="cls-15"><tspan x="14.91" y="47.58">SARL socialmpact</tspan></tspan><tspan class="cls-16"><tspan x="20.12" y="57.77">Consultant Web</tspan></tspan></text><text class="cls-17" transform="translate(34.9 111.98)">Sciences U - Lille<tspan x="-1.88" y="10.2">OpenClassrooms</tspan></text></svg>